# xmcd
#
# Track frame offsets:
#	150
#	13387
#	27712
#	44890
#	66742
#	80432
#	92057
#	111627
#	124512
#	146155
#	160382
#	176700
#	192617
#	204877
#	217237
#	232080
#	240930
#	260695
#	273892
#
# Disc length: 3859 seconds
#
# Revision: 2
# Processed by: cddbd v1.5.2PL0 Copyright (c) Steve Scherf et al.
# Submitted via: audiograbber 1.83.01
#
DISCID=350f1113
DTITLE=Various Artist - Rural Aid '95 Volume 3 [Disc 1]
DYEAR=1995
DGENRE=Country
TTITLE0=Lee Kernaghan - Country's Really Big These Days
TTITLE1=Gina Jeffreys - Getting Used To Getting Over You
TTITLE2=George Hamilton V - Roll With The Punches
TTITLE3=Greg Champion - Goondiwindi Pork
TTITLE4=Grant Luhrs - The Little Things
TTITLE5=Jane Saunders - Lilly White Hands
TTITLE6=Ted Egan - Goodbye Old Chap
TTITLE7=Brent Parlane - Save A Little Love
TTITLE8=Ian Stephen - King Of The Cross
TTITLE9=Pat Drummond - Laughter Like A Shield
TTITLE10=Evelyn Bury - Wedding Day Waltz
TTITLE11=Stan Coster - Is This Old Pub Could Talk
TTITLE12=Barry Thornton - Papa Whisky November
TTITLE13=Ray Kernaghan - Lost Highway
TTITLE14=Bushwackers - Lachlan Tigers
TTITLE15=Jim Haynes - Wheel A Barrowback For Me
TTITLE16=Tanya Self - He Just Knows
TTITLE17=Hot Diggety - Catfish John
TTITLE18=Redneck Mothers - Work It Out
EXTD=
EXTT0=
EXTT1=
EXTT2=
EXTT3=
EXTT4=
EXTT5=
EXTT6=
EXTT7=
EXTT8=
EXTT9=
EXTT10=
EXTT11=
EXTT12=
EXTT13=
EXTT14=
EXTT15=
EXTT16=
EXTT17=
EXTT18=
PLAYORDER=
